<svg xmlns="http://www.w3.org/2000/svg" version="1.1" xmlns:xlink="http://www.w3.org/1999/xlink" xmlns:svgjs="http://svgjs.dev/svgjs" width="1440" height="560" preserveAspectRatio="none" viewBox="0 0 1440 560"><g mask="url(&quot;#SvgjsMask1000&quot;)" fill="none"><rect width="1440" height="560" x="0" y="0" fill="#0e2a47"></rect><path d="M100 303.53L164.96 341.03L164.96 416.03L100 453.53L35.05 416.03L35.05 341.03zM35.05 416.03L100 453.53L100 528.53L35.05 566.03L-29.9 528.53L-29.9 453.53zM359.82 528.53L424.77 566.03L424.77 641.03L359.82 678.53L294.87 641.03L294.87 566.03zM554.68 -33.97L619.63 3.53L619.63 78.53L554.68 116.03L489.73 78.53L489.73 3.53zM554.68 191.03L619.63 228.53L619.63 303.53L554.68 341.03L489.73 303.53L489.73 228.53zM554.68 416.03L619.63 453.53L619.63 528.53L554.68 566.03L489.73 528.53L489.73 453.53zM749.54 528.53L814.5 566.03L814.5 641.03L749.54 678.53L684.59 641.03L684.59 566.03zM1269.17 78.53L1334.12 116.03L1334.12 191.03L1269.17 228.53L1204.22 191.03L1204.22 116.03zM1399.08 78.53L1464.03 116.03L1464.03 191.03L1399.08 228.53L1334.13 191.03L1334.13 116.03zM1399.08 528.53L1464.03 566.03L1464.03 641.03L1399.08 678.53L1334.13 641.03L1334.13 566.03z" stroke="#03305d" stroke-width="2"></path><path d="M92.5 303.53 a7.5 7.5 0 1 0 15 0 a7.5 7.5 0 1 0 -15 0zM157.46 341.03 a7.5 7.5 0 1 0 15 0 a7.5 7.5 0 1 0 -15 0zM157.46 416.03 a7.5 7.5 0 1 0 15 0 a7.5 7.5 0 1 0 -15 0zM92.5 453.53 a7.5 7.5 0 1 0 15 0 a7.5 7.5 0 1 0 -15 0zM27.55 416.03 a7.5 7.5 0 1 0 15 0 a7.5 7.5 0 1 0 -15 0zM27.55 341.03 a7.5 7.5 0 1 0 15 0 a7.5 7.5 0 1 0 -15 0zM92.5 528.53 a7.5 7.5 0 1 0 15 0 a7.5 7.5 0 1 0 -15 0zM27.55 566.03 a7.5 7.5 0 1 0 15 0 a7.5 7.5 0 1 0 -15 0zM-37.4 528.53 a7.5 7.5 0 1 0 15 0 a7.5 7.5 0 1 0 -15 0zM-37.4 453.53 a7.5 7.5 0 1 0 15 0 a7.5 7.5 0 1 0 -15 0zM352.32 528.53 a7.5 7.5 0 1 0 15 0 a7.5 7.5 0 1 0 -15 0zM417.27 566.03 a7.5 7.5 0 1 0 15 0 a7.5 7.5 0 1 0 -15 0zM417.27 641.03 a7.5 7.5 0 1 0 15 0 a7.5 7.5 0 1 0 -15 0zM352.32 678.53 a7.5 7.5 0 1 0 15 0 a7.5 7.5 0 1 0 -15 0zM287.37 641.03 a7.5 7.5 0 1 0 15 0 a7.5 7.5 0 1 0 -15 0zM287.37 566.03 a7.5 7.5 0 1 0 15 0 a7.5 7.5 0 1 0 -15 0zM547.18 -33.97 a7.5 7.5 0 1 0 15 0 a7.5 7.5 0 1 0 -15 0zM612.13 3.53 a7.5 7.5 0 1 0 15 0 a7.5 7.5 0 1 0 -15 0zM612.13 78.53 a7.5 7.5 0 1 0 15 0 a7.5 7.5 0 1 0 -15 0zM547.18 116.03 a7.5 7.5 0 1 0 15 0 a7.5 7.5 0 1 0 -15 0zM482.23 78.53 a7.5 7.5 0 1 0 15 0 a7.5 7.5 0 1 0 -15 0zM482.23 3.53 a7.5 7.5 0 1 0 15 0 a7.5 7.5 0 1 0 -15 0zM547.18 191.03 a7.5 7.5 0 1 0 15 0 a7.5 7.5 0 1 0 -15 0zM612.13 228.53 a7.5 7.5 0 1 0 15 0 a7.5 7.5 0 1 0 -15 0zM612.13 303.53 a7.5 7.5 0 1 0 15 0 a7.5 7.5 0 1 0 -15 0zM547.18 341.03 a7.5 7.5 0 1 0 15 0 a7.5 7.5 0 1 0 -15 0zM482.23 303.53 a7.5 7.5 0 1 0 15 0 a7.5 7.5 0 1 0 -15 0zM482.23 228.53 a7.5 7.5 0 1 0 15 0 a7.5 7.5 0 1 0 -15 0zM547.18 416.03 a7.5 7.5 0 1 0 15 0 a7.5 7.5 0 1 0 -15 0zM612.13 453.53 a7.5 7.5 0 1 0 15 0 a7.5 7.5 0 1 0 -15 0zM612.13 528.53 a7.5 7.5 0 1 0 15 0 a7.5 7.5 0 1 0 -15 0zM547.18 566.03 a7.5 7.5 0 1 0 15 0 a7.5 7.5 0 1 0 -15 0zM482.23 528.53 a7.5 7.5 0 1 0 15 0 a7.5 7.5 0 1 0 -15 0zM482.23 453.53 a7.5 7.5 0 1 0 15 0 a7.5 7.5 0 1 0 -15 0zM742.04 528.53 a7.5 7.5 0 1 0 15 0 a7.5 7.5 0 1 0 -15 0zM807 566.03 a7.5 7.5 0 1 0 15 0 a7.5 7.5 0 1 0 -15 0zM807 641.03 a7.5 7.5 0 1 0 15 0 a7.5 7.5 0 1 0 -15 0zM742.04 678.53 a7.5 7.5 0 1 0 15 0 a7.5 7.5 0 1 0 -15 0zM677.09 641.03 a7.5 7.5 0 1 0 15 0 a7.5 7.5 0 1 0 -15 0zM677.09 566.03 a7.5 7.5 0 1 0 15 0 a7.5 7.5 0 1 0 -15 0zM1261.67 78.53 a7.5 7.5 0 1 0 15 0 a7.5 7.5 0 1 0 -15 0zM1326.62 116.03 a7.5 7.5 0 1 0 15 0 a7.5 7.5 0 1 0 -15 0zM1326.62 191.03 a7.5 7.5 0 1 0 15 0 a7.5 7.5 0 1 0 -15 0zM1261.67 228.53 a7.5 7.5 0 1 0 15 0 a7.5 7.5 0 1 0 -15 0zM1196.72 191.03 a7.5 7.5 0 1 0 15 0 a7.5 7.5 0 1 0 -15 0zM1196.72 116.03 a7.5 7.5 0 1 0 15 0 a7.5 7.5 0 1 0 -15 0zM1391.58 78.53 a7.5 7.5 0 1 0 15 0 a7.5 7.5 0 1 0 -15 0zM1456.53 116.03 a7.5 7.5 0 1 0 15 0 a7.5 7.5 0 1 0 -15 0zM1456.53 191.03 a7.5 7.5 0 1 0 15 0 a7.5 7.5 0 1 0 -15 0zM1391.58 228.53 a7.5 7.5 0 1 0 15 0 a7.5 7.5 0 1 0 -15 0zM1326.63 191.03 a7.5 7.5 0 1 0 15 0 a7.5 7.5 0 1 0 -15 0zM1326.63 116.03 a7.5 7.5 0 1 0 15 0 a7.5 7.5 0 1 0 -15 0zM1391.58 528.53 a7.5 7.5 0 1 0 15 0 a7.5 7.5 0 1 0 -15 0zM1456.53 566.03 a7.5 7.5 0 1 0 15 0 a7.5 7.5 0 1 0 -15 0zM1456.53 641.03 a7.5 7.5 0 1 0 15 0 a7.5 7.5 0 1 0 -15 0zM1391.58 678.53 a7.5 7.5 0 1 0 15 0 a7.5 7.5 0 1 0 -15 0zM1326.63 641.03 a7.5 7.5 0 1 0 15 0 a7.5 7.5 0 1 0 -15 0zM1326.63 566.03 a7.5 7.5 0 1 0 15 0 a7.5 7.5 0 1 0 -15 0z" fill="#03305d"></path><path d="M39.03 -46.58L82.33 -21.58L82.33 28.42L39.03 53.42L-4.27 28.42L-4.27 -21.58zM82.33 178.42L125.64 203.42L125.64 253.42L82.33 278.42L39.03 253.42L39.03 203.42zM39.03 253.42L82.33 278.42L82.33 328.42L39.03 353.42L-4.27 328.42L-4.27 278.42zM39.03 403.42L82.33 428.42L82.33 478.42L39.03 503.42L-4.27 478.42L-4.27 428.42zM125.64 -46.58L168.94 -21.58L168.94 28.42L125.64 53.42L82.33 28.42L82.33 -21.58zM168.94 28.42L212.24 53.42L212.24 103.42L168.94 128.42L125.64 103.42L125.64 53.42zM125.64 103.42L168.94 128.42L168.94 178.42L125.64 203.42L82.33 178.42L82.33 128.42zM125.64 253.42L168.94 278.42L168.94 328.42L125.64 353.42L82.33 328.42L82.33 278.42zM168.94 328.42L212.24 353.42L212.24 403.42L168.94 428.42L125.64 403.42L125.64 353.42zM125.64 403.42L168.94 428.42L168.94 478.42L125.64 503.42L82.33 478.42L82.33 428.42zM168.94 478.42L212.24 503.42L212.24 553.42L168.94 578.42L125.64 553.42L125.64 503.42zM212.24 -46.58L255.54 -21.58L255.54 28.42L212.24 53.42L168.94 28.42L168.94 -21.58zM255.54 28.42L298.85 53.42L298.85 103.42L255.54 128.42L212.24 103.42L212.24 53.42zM212.24 103.42L255.54 128.42L255.54 178.42L212.24 203.42L168.94 178.42L168.94 128.42zM255.54 178.42L298.85 203.42L298.85 253.42L255.54 278.42L212.24 253.42L212.24 203.42zM255.54 328.42L298.85 353.42L298.85 403.42L255.54 428.42L212.24 403.42L212.24 353.42zM212.24 403.42L255.54 428.42L255.54 478.42L212.24 503.42L168.94 478.42L168.94 428.42zM298.85 -46.58L342.15 -21.58L342.15 28.42L298.85 53.42L255.54 28.42L255.54 -21.58zM342.15 28.42L385.45 53.42L385.45 103.42L342.15 128.42L298.85 103.42L298.85 53.42zM342.15 178.42L385.45 203.42L385.45 253.42L342.15 278.42L298.85 253.42L298.85 203.42zM342.15 478.42L385.45 503.42L385.45 553.42L342.15 578.42L298.85 553.42L298.85 503.42zM385.45 -46.58L428.75 -21.58L428.75 28.42L385.45 53.42L342.15 28.42L342.15 -21.58zM385.45 103.42L428.75 128.42L428.75 178.42L385.45 203.42L342.15 178.42L342.15 128.42zM428.75 178.42L472.06 203.42L472.06 253.42L428.75 278.42L385.45 253.42L385.45 203.42zM385.45 253.42L428.75 278.42L428.75 328.42L385.45 353.42L342.15 328.42L342.15 278.42zM428.75 328.42L472.06 353.42L472.06 403.42L428.75 428.42L385.45 403.42L385.45 353.42zM385.45 403.42L428.75 428.42L428.75 478.42L385.45 503.42L342.15 478.42L342.15 428.42zM428.75 478.42L472.06 503.42L472.06 553.42L428.75 578.42L385.45 553.42L385.45 503.42zM472.06 403.42L515.36 428.42L515.36 478.42L472.06 503.42L428.75 478.42L428.75 428.42zM601.96 28.42L645.26 53.42L645.26 103.42L601.96 128.42L558.66 103.42L558.66 53.42zM558.66 103.42L601.96 128.42L601.96 178.42L558.66 203.42L515.36 178.42L515.36 128.42zM558.66 403.42L601.96 428.42L601.96 478.42L558.66 503.42L515.36 478.42L515.36 428.42zM601.96 478.42L645.26 503.42L645.26 553.42L601.96 578.42L558.66 553.42L558.66 503.42zM645.26 -46.58L688.57 -21.58L688.57 28.42L645.26 53.42L601.96 28.42L601.96 -21.58zM688.57 28.42L731.87 53.42L731.87 103.42L688.57 128.42L645.26 103.42L645.26 53.42zM645.26 253.42L688.57 278.42L688.57 328.42L645.26 353.42L601.96 328.42L601.96 278.42zM688.57 328.42L731.87 353.42L731.87 403.42L688.57 428.42L645.26 403.42L645.26 353.42zM688.57 478.42L731.87 503.42L731.87 553.42L688.57 578.42L645.26 553.42L645.26 503.42zM731.87 -46.58L775.17 -21.58L775.17 28.42L731.87 53.42L688.57 28.42L688.57 -21.58zM775.17 328.42L818.48 353.42L818.48 403.42L775.17 428.42L731.87 403.42L731.87 353.42zM731.87 403.42L775.17 428.42L775.17 478.42L731.87 503.42L688.57 478.42L688.57 428.42zM775.17 478.42L818.48 503.42L818.48 553.42L775.17 578.42L731.87 553.42L731.87 503.42zM818.48 -46.58L861.78 -21.58L861.78 28.42L818.48 53.42L775.17 28.42L775.17 -21.58zM818.48 103.42L861.78 128.42L861.78 178.42L818.48 203.42L775.17 178.42L775.17 128.42zM818.48 253.42L861.78 278.42L861.78 328.42L818.48 353.42L775.17 328.42L775.17 278.42zM948.38 28.42L991.69 53.42L991.69 103.42L948.38 128.42L905.08 103.42L905.08 53.42zM905.08 103.42L948.38 128.42L948.38 178.42L905.08 203.42L861.78 178.42L861.78 128.42zM948.38 178.42L991.69 203.42L991.69 253.42L948.38 278.42L905.08 253.42L905.08 203.42zM905.08 253.42L948.38 278.42L948.38 328.42L905.08 353.42L861.78 328.42L861.78 278.42zM948.38 328.42L991.69 353.42L991.69 403.42L948.38 428.42L905.08 403.42L905.08 353.42zM991.69 -46.58L1034.99 -21.58L1034.99 28.42L991.69 53.42L948.38 28.42L948.38 -21.58zM1034.99 178.42L1078.29 203.42L1078.29 253.42L1034.99 278.42L991.69 253.42L991.69 203.42zM1034.99 328.42L1078.29 353.42L1078.29 403.42L1034.99 428.42L991.69 403.42L991.69 353.42zM1034.99 478.42L1078.29 503.42L1078.29 553.42L1034.99 578.42L991.69 553.42L991.69 503.42zM1121.59 28.42L1164.89 53.42L1164.89 103.42L1121.59 128.42L1078.29 103.42L1078.29 53.42zM1078.29 103.42L1121.59 128.42L1121.59 178.42L1078.29 203.42L1034.99 178.42L1034.99 128.42zM1121.59 328.42L1164.89 353.42L1164.89 403.42L1121.59 428.42L1078.29 403.42L1078.29 353.42zM1078.29 403.42L1121.59 428.42L1121.59 478.42L1078.29 503.42L1034.99 478.42L1034.99 428.42zM1208.2 28.42L1251.5 53.42L1251.5 103.42L1208.2 128.42L1164.89 103.42L1164.89 53.42zM1208.2 178.42L1251.5 203.42L1251.5 253.42L1208.2 278.42L1164.89 253.42L1164.89 203.42zM1164.89 253.42L1208.2 278.42L1208.2 328.42L1164.89 353.42L1121.59 328.42L1121.59 278.42zM1164.89 403.42L1208.2 428.42L1208.2 478.42L1164.89 503.42L1121.59 478.42L1121.59 428.42zM1251.5 -46.58L1294.8 -21.58L1294.8 28.42L1251.5 53.42L1208.2 28.42L1208.2 -21.58zM1251.5 253.42L1294.8 278.42L1294.8 328.42L1251.5 353.42L1208.2 328.42L1208.2 278.42zM1294.8 328.42L1338.11 353.42L1338.11 403.42L1294.8 428.42L1251.5 403.42L1251.5 353.42zM1468.01 28.42L1511.32 53.42L1511.32 103.42L1468.01 128.42L1424.71 103.42L1424.71 53.42zM1468.01 178.42L1511.32 203.42L1511.32 253.42L1468.01 278.42L1424.71 253.42L1424.71 203.42zM1424.71 403.42L1468.01 428.42L1468.01 478.42L1424.71 503.42L1381.41 478.42L1381.41 428.42zM1468.01 478.42L1511.32 503.42L1511.32 553.42L1468.01 578.42L1424.71 553.42L1424.71 503.42z" stroke="rgba(6, 80, 156, 0.93)" stroke-width="2"></path></g><defs><mask id="SvgjsMask1000"><rect width="1440" height="560" fill="#ffffff"></rect></mask></defs></svg>